<?xml version="1.0" encoding="UTF-8" standalone="no"?>
<svg width="32px" height="32px" viewBox="0 0 32 32" version="1.1" xmlns="http://www.w3.org/2000/svg" xmlns:xlink="http://www.w3.org/1999/xlink" xmlns:sketch="http://www.bohemiancoding.com/sketch/ns">
    <title>Slice 1</title>
    <description>Created with Sketch (http://www.bohemiancoding.com/sketch)</description>
    <defs></defs>
    <g id="Page 1" stroke="none" stroke-width="1" fill="none" fill-rule="evenodd">
        <path d="M16,32 C7.16344357,32 0,24.8365564 0,16 C0,7.16344357 7.16344357,0 16,0 C24.8365564,0 32,7.16344357 32,16 C32,24.8365564 24.8365564,32 16,32 Z M16,28 C22.6274173,28 28,22.6274173 28,16 C28,9.37258267 22.6274173,4 16,4 C9.37258267,4 4,9.37258267 4,16 C4,22.6274173 9.37258267,28 16,28 Z M16,28" id="Oval" fill="#000000"></path>
        <path d="M16,24.25 C20.5563494,24.25 24.25,20.5563494 24.25,16 C24.25,11.4436506 20.5563494,7.75 16,7.75 C11.4436506,7.75 7.75,11.4436506 7.75,16 C7.75,20.5563494 11.4436506,24.25 16,24.25 Z M16,24.25" id="Oval 3 copy" fill="#000000"></path>
    </g>
</svg>